<svg xmlns="http://www.w3.org/2000/svg" xmlns:xlink="http://www.w3.org/1999/xlink" width="86" height="91" viewBox="0 0 86 91"><defs><path id="be3fa" d="M720.891 386v-8.257a35.764 35.764 0 0 1-22.902 8.256c-19.72 0-35.726-15.919-35.977-35.65H662V295h1.87v43.395c4.782-14.314 18.246-24.632 34.119-24.632 8.7 0 16.68 3.099 22.902 8.256V295H748v91zm25.24-89.125h-23.37v26.818c6.905 6.582 11.217 15.876 11.217 26.187 0 10.312-4.312 19.606-11.217 26.187v8.056h23.37z"/><path id="be3fb" d="M697.047 336.281c7.482 0 13.547 6.086 13.547 13.594 0 7.507-6.065 13.594-13.547 13.594s-13.547-6.087-13.547-13.594c0-7.508 6.065-13.594 13.547-13.594z"/><path id="be3fe" d="M725.824 321.543h2.368v.706h-3.215v-6.67h.847zm6.712-1.709c0 .791-.186 1.408-.559 1.849-.372.44-.871.662-1.496.662-.617 0-1.108-.221-1.472-.662-.364-.441-.546-1.058-.546-1.849v-1.832c0-.788.182-1.405.548-1.85.365-.446.855-.67 1.47-.67.622 0 1.12.224 1.494.67.374.445.561 1.062.561 1.85zm-.842-1.845c0-.58-.106-1.022-.317-1.322-.211-.301-.51-.451-.896-.451-.381 0-.673.15-.876.45-.203.301-.304.742-.304 1.323v1.845c0 .587.102 1.031.306 1.333.204.303.495.454.874.454.389 0 .688-.15.898-.451.21-.301.315-.746.315-1.336zm5.65 3.312c-.14.268-.366.51-.678.723-.313.214-.713.32-1.2.32-.636 0-1.148-.212-1.537-.636-.39-.424-.584-1.03-.584-1.814v-1.979c0-.773.185-1.371.554-1.796.37-.424.86-.636 1.472-.636.62 0 1.094.171 1.422.515.328.343.503.825.525 1.445l-.008.028h-.8c-.015-.419-.114-.737-.299-.955-.185-.218-.46-.328-.827-.328-.37 0-.662.146-.876.438-.214.293-.32.717-.32 1.274v1.99c0 .57.114 1.003.343 1.302.23.298.541.447.936.447.289 0 .513-.054.673-.163.16-.108.279-.246.357-.414v-1.516h-1.038v-.674h1.884zm5.023-1.467c0 .791-.186 1.408-.559 1.849-.372.44-.871.662-1.496.662-.617 0-1.108-.221-1.472-.662-.364-.441-.546-1.058-.546-1.849v-1.832c0-.788.183-1.405.548-1.85.365-.446.855-.67 1.47-.67.622 0 1.12.224 1.494.67.374.445.561 1.062.561 1.85zm-.842-1.845c0-.58-.106-1.022-.317-1.322-.211-.301-.51-.451-.896-.451-.381 0-.673.15-.876.45-.203.301-.304.742-.304 1.323v1.845c0 .587.102 1.031.306 1.333.204.303.496.454.874.454.389 0 .688-.15.898-.451.21-.301.315-.746.315-1.336z"/><path id="be3ff" d="M725.824 307.471h2.368v.705h-3.215v-6.67h.847zm6.712-1.709c0 .791-.186 1.407-.559 1.848-.372.442-.871.663-1.496.663-.617 0-1.108-.221-1.472-.663-.364-.44-.546-1.057-.546-1.848v-1.832c0-.788.182-1.405.548-1.85.365-.446.855-.67 1.47-.67.622 0 1.12.224 1.494.67.374.445.561 1.062.561 1.85zm-.842-1.846c0-.58-.106-1.02-.317-1.321-.211-.301-.51-.452-.896-.452-.381 0-.673.15-.876.452-.203.3-.304.741-.304 1.321v1.846c0 .587.102 1.03.306 1.333.204.303.495.454.874.454.389 0 .688-.15.898-.452.21-.3.315-.745.315-1.335zm5.65 3.312c-.14.269-.366.51-.678.724-.313.214-.713.32-1.2.32-.636 0-1.148-.212-1.537-.636-.39-.425-.584-1.03-.584-1.815v-1.978c0-.773.185-1.371.554-1.796.37-.425.86-.637 1.472-.637.62 0 1.094.172 1.422.516.328.344.503.825.525 1.445l-.008.027h-.8c-.015-.418-.114-.736-.299-.955-.185-.218-.46-.327-.827-.327-.37 0-.662.146-.876.438-.214.292-.32.717-.32 1.273v1.992c0 .569.114 1.002.343 1.3.23.299.541.448.936.448.289 0 .513-.054.673-.163.16-.108.279-.246.357-.414v-1.517h-1.038v-.673h1.884zm5.023-1.466c0 .791-.186 1.407-.559 1.848-.372.442-.871.663-1.496.663-.617 0-1.108-.221-1.472-.663-.364-.44-.546-1.057-.546-1.848v-1.832c0-.788.183-1.405.548-1.85.365-.446.855-.67 1.47-.67.622 0 1.12.224 1.494.67.374.445.561 1.062.561 1.85zm-.842-1.846c0-.58-.106-1.02-.317-1.321-.211-.301-.51-.452-.896-.452-.381 0-.673.15-.876.452-.203.3-.304.741-.304 1.321v1.846c0 .587.102 1.03.306 1.333.204.303.496.454.874.454.389 0 .688-.15.898-.452.21-.3.315-.745.315-1.335z"/><path id="be3fg" d="M732.536 333.907c0 .79-.186 1.407-.559 1.848-.372.441-.877.749-1.496.662-.208-.03-.813-.636-1.177-1.078-.343-.415-.04-1.011-.003-1.74v.308c0 .586.102 1.03.306 1.332.204.303.495.454.874.454.389 0 .688-.15.898-.451.21-.301.315-.746.315-1.335v-1.847c0-.58-.106-1.02-.317-1.321-.211-.301-.51-.451-.896-.451-.381 0-.673.15-.876.45-.203.302-.304.742-.304 1.322v1.397l-.838-1.383c0-.788.182-1.404.548-1.85.365-.446.855-.67 1.47-.67.622 0 1.12.224 1.494.67.374.446.561 1.062.561 1.85zm-3.235-.308v-.142l.003.006c0 .046-.001.09-.003.136zm8.042 1.774c-.139.268-.365.51-.677.723-.313.214-.713.32-1.2.32-.636 0-1.148-.211-1.537-.636-.39-.424-.584-1.029-.584-1.814v-1.979c0-.772.185-1.37.554-1.795.37-.425.86-.637 1.472-.637.62 0 1.094.171 1.422.515.328.344.503.826.525 1.445l-.008.028h-.8c-.015-.419-.114-.737-.299-.955-.185-.219-.46-.328-.827-.328-.37 0-.662.146-.876.438-.214.293-.32.717-.32 1.274v1.991c0 .57.114 1.003.343 1.301.23.298.541.447.936.447.289 0 .513-.054.673-.163a1 1 0 0 0 .357-.414v-1.516h-1.038v-.673h1.884zm5.024-1.466c0 .79-.186 1.407-.559 1.848-.372.441-.871.662-1.496.662-.617 0-1.108-.221-1.472-.662-.364-.441-.546-1.058-.546-1.848v-1.833c0-.788.183-1.404.548-1.85.365-.446.855-.67 1.47-.67.622 0 1.12.224 1.494.67.374.446.561 1.062.561 1.85zm-.842-1.847c0-.58-.106-1.02-.317-1.321-.211-.301-.51-.451-.896-.451-.381 0-.673.15-.876.45-.203.302-.304.742-.304 1.322v1.847c0 .586.102 1.03.306 1.332.204.303.496.454.874.454.389 0 .688-.15.898-.451.21-.301.315-.746.315-1.335z"/><path id="be3fh" d="M737.343 349.445c-.139.268-.365.51-.677.723-.313.214-.713.32-1.2.32-.636 0-1.148-.211-1.537-.636-.39-.424-.584-1.029-.584-1.814v-1.979c0-.772.185-1.37.554-1.795.37-.425.86-.637 1.472-.637.62 0 1.094.172 1.422.515.328.344.503.825.525 1.445l-.008.028h-.8c-.015-.418-.114-.737-.299-.955-.185-.218-.46-.328-.827-.328-.37 0-.662.147-.876.439-.214.292-.32.716-.32 1.273v1.991c0 .57.114 1.003.343 1.301.23.298.541.448.936.448.289 0 .513-.055.673-.164a1 1 0 0 0 .357-.414v-1.516h-1.038v-.673h1.884zm5.024-1.466c0 .79-.186 1.407-.559 1.848-.372.441-.871.662-1.496.662-.617 0-1.108-.22-1.472-.662-.364-.441-.546-1.057-.546-1.848v-1.833c0-.788.183-1.404.548-1.85.365-.446.855-.669 1.47-.669.622 0 1.12.223 1.494.669.374.446.561 1.062.561 1.85zm-.842-1.846c0-.58-.106-1.021-.317-1.322-.211-.3-.51-.451-.896-.451-.381 0-.673.15-.876.45-.203.302-.304.743-.304 1.323v1.846c0 .586.102 1.03.306 1.332.204.303.496.454.874.454.389 0 .688-.15.898-.451.21-.3.315-.746.315-1.335z"/><path id="be3fi" d="M732.536 362.051c0 .79-.186 1.407-.559 1.848-.372.441-.871.662-1.496.662-.26 0-.498-.04-.714-.118l.332-.667c.116.041.243.061.382.061.389 0 .688-.15.898-.45.21-.302.315-.747.315-1.336v-1.846a3.73 3.73 0 0 0-.036-.54l.321-1.292c.372.445.557 1.06.557 1.845zm4.807 1.466c-.139.268-.365.51-.677.723-.313.214-.713.321-1.2.321-.636 0-1.148-.212-1.537-.637-.39-.424-.584-1.029-.584-1.814v-1.978c0-.773.185-1.372.554-1.796.37-.425.86-.637 1.472-.637.62 0 1.094.172 1.422.515.328.344.503.826.525 1.446l-.008.027h-.8c-.015-.418-.114-.737-.299-.955-.185-.218-.46-.328-.827-.328-.37 0-.662.147-.876.439-.214.292-.32.716-.32 1.273v1.991c0 .57.114 1.003.343 1.301.23.299.541.448.936.448.289 0 .513-.055.673-.163a1 1 0 0 0 .357-.414v-1.517h-1.038v-.673h1.884zm5.024-1.466c0 .79-.186 1.407-.559 1.848-.372.441-.871.662-1.496.662-.617 0-1.108-.22-1.472-.662-.364-.44-.546-1.057-.546-1.848v-1.833c0-.787.183-1.404.548-1.85.365-.446.855-.669 1.47-.669.622 0 1.12.223 1.494.669.374.446.561 1.063.561 1.85zm-.842-1.846c0-.58-.106-1.021-.317-1.322-.211-.3-.51-.45-.896-.45-.381 0-.673.15-.876.45-.203.301-.304.741-.304 1.322v1.846c0 .586.102 1.03.306 1.333.204.302.496.453.874.453.389 0 .688-.15.898-.45.21-.302.315-.747.315-1.336z"/><path id="be3fj" d="M725.824 378.77h2.368v.705h-3.215v-6.67h.847zm6.712-1.709c0 .791-.186 1.407-.559 1.849-.372.44-.871.661-1.496.661-.617 0-1.108-.22-1.472-.661-.364-.442-.546-1.058-.546-1.849v-1.832c0-.788.182-1.405.548-1.85.365-.447.855-.67 1.47-.67.622 0 1.12.223 1.494.67.374.445.561 1.062.561 1.85zm-.842-1.846c0-.58-.106-1.02-.317-1.321-.211-.301-.51-.451-.896-.451-.381 0-.673.15-.876.45-.203.301-.304.742-.304 1.322v1.846c0 .587.102 1.03.306 1.333.204.302.495.453.874.453.389 0 .688-.15.898-.45.21-.301.315-.746.315-1.336zm5.65 3.312c-.14.268-.366.51-.678.723-.313.215-.713.321-1.2.321-.636 0-1.148-.212-1.537-.636-.39-.425-.584-1.03-.584-1.814v-1.98c0-.771.185-1.37.554-1.795.37-.424.86-.637 1.472-.637.62 0 1.094.172 1.422.515.328.344.503.826.525 1.446l-.008.027h-.8c-.015-.418-.114-.736-.299-.955-.185-.218-.46-.327-.827-.327-.37 0-.662.146-.876.438-.214.292-.32.716-.32 1.273v1.992c0 .568.114 1.003.343 1.3.23.3.541.448.936.448.289 0 .513-.054.673-.163.16-.108.279-.246.357-.414v-1.516h-1.038v-.674h1.884zm5.023-1.466c0 .791-.186 1.407-.559 1.849-.372.44-.871.661-1.496.661-.617 0-1.108-.22-1.472-.661-.364-.442-.546-1.058-.546-1.849v-1.832c0-.788.183-1.405.548-1.85.365-.447.855-.67 1.47-.67.622 0 1.12.223 1.494.67.374.445.561 1.062.561 1.85zm-.842-1.846c0-.58-.106-1.02-.317-1.321-.211-.301-.51-.451-.896-.451-.381 0-.673.15-.876.45-.203.301-.304.742-.304 1.322v1.846c0 .587.102 1.03.306 1.333.204.302.496.453.874.453.389 0 .688-.15.898-.45.21-.301.315-.746.315-1.336z"/><clipPath id="be3fc"><use fill="#fff" xlink:href="#be3fa"/></clipPath><clipPath id="be3fd"><use fill="#fff" xlink:href="#be3fb"/></clipPath></defs><g><g transform="translate(-662 -295)"><use fill="#fff" fill-opacity="0" stroke="#ee7248" stroke-miterlimit="50" stroke-width="4" clip-path="url(&quot;#be3fc&quot;)" xlink:href="#be3fa"/></g><g transform="translate(-662 -295)"><use fill="#fff" fill-opacity="0" stroke="#ee7248" stroke-miterlimit="50" stroke-width="4" clip-path="url(&quot;#be3fd&quot;)" xlink:href="#be3fb"/></g><g transform="translate(-662 -295)"><use fill="#ee7248" xlink:href="#be3fe"/></g><g transform="translate(-662 -295)"><use fill="#ee7248" xlink:href="#be3ff"/></g><g transform="translate(-662 -295)"><use fill="#ee7248" xlink:href="#be3fg"/></g><g transform="translate(-662 -295)"><use fill="#ee7248" xlink:href="#be3fh"/></g><g transform="translate(-662 -295)"><use fill="#ee7248" xlink:href="#be3fi"/></g><g transform="translate(-662 -295)"><use fill="#ee7248" xlink:href="#be3fj"/></g></g></svg>